<svg xmlns="http://www.w3.org/2000/svg" viewBox="0 0 441.413 517.052">
  <defs>
    <style>
      .cls-1 {
        fill: #183642;
      }

      .cls-2 {
        fill: #fbbebe;
      }

      .cls-3 {
        fill: #125e8a;
      }

      .cls-4 {
        opacity: 0.1;
      }

      .cls-5 {
        fill: #3f3d56;
      }

      .cls-6 {
        fill: #e7effd;
      }

      .cls-7 {
        fill: #fff;
      }
    </style>
  </defs>
  <g id="Group_67" data-name="Group 67" transform="translate(0 0)">
    <g id="Group_58" data-name="Group 58">
      <rect id="Rectangle_48" data-name="Rectangle 48" class="cls-1" width="227.07" height="78.99" rx="36.83" transform="translate(127.077 407.301)"/>
      <path id="Path_257" data-name="Path 257" class="cls-2" d="M420.8,535.91l6.25,10.01,23.41,8.25,16.09-29.34-14.83-10.01-23.77-9.29-13.58,7.86Z" transform="translate(-331.513 -189.729)"/>
      <path id="Path_267" data-name="Path 267" class="cls-3" d="M472.15,447.67l-6.25,3.58-12,82.21s-6.37,6.08-4.38,10-.39,10.72-.39,10.72-10.76,4.65-8.37,7.51,1.3,8.22-.34,11.79-4.33,10,0,11.08.74,15,.74,15,15.09-1.72,14,7.14c-.45,3.58,17.06,15,17.06,15s-19.9-36.1,24.68-31.1l3.83-20.35s3.83-11.46,0-15,.86-20.55.86-20.55l.84-73.81Z" transform="translate(-376.623 -265.559)"/>
      <path id="Path_249" data-name="Path 249" class="cls-1" d="M481.63,666.07s-20-4.65-29.31-8.94-61.48-12.51-72.92,12.16,15.73,57.54,22.52,61.12S474.84,685,474.84,685L527,707l10-34.14Z" transform="translate(-376.623 -265.559)"/>
      <path id="Path_251" data-name="Path 251" class="cls-2" d="M607.14,714.66s-22.77,5.85-41.35,5.59S460.3,756.1,460.3,756.1s-12.51,28.52,7.9,26.16S498.55,770,512.94,770s59.66-5,59.66-5l43.56-32.18Z" transform="translate(-376.623 -265.559)"/>
      <path id="Path_252" data-name="Path 252" class="cls-2" d="M621.39,445.53l-40.84,8.05-2.65.53s-32.29-8.58-33.36-9.3-30.38-40.21-30.38-40.21,14.82.16,26.46-6.55c.42-.24.83-.5,1.24-.75a25.8,25.8,0,0,0,11-13.49c.21-.59.39-1.2.56-1.84,1.24-4.78,1.32-10.57-.34-17.58-4-16.67,5.2-21.26,17.39-20.86,17.61.58,41.58,11.57,41.58,11.57a48.87,48.87,0,0,0,3.77,16.3c.19.48.4,1,.62,1.46a46.54,46.54,0,0,0,21.69,22.75l1.29.64c1.3.62,2.67,1.21,4.09,1.74C674.65,409.79,621.39,445.53,621.39,445.53Z" transform="translate(-376.623 -265.559)"/>
      <path id="Path_253" data-name="Path 253" class="cls-4" d="M616.48,372.86a51.51,51.51,0,0,1-63.58,10.95c1.76-5.12,2.09-11.49.22-19.42-9.65-40.75,59-9.29,59-9.29A49.529,49.529,0,0,0,616.48,372.86Z" transform="translate(-367.623 -268.559)"/>
      <path id="Path_254" data-name="Path 254" class="cls-2" d="M629.37,336.66a51.12,51.12,0,0,1-7.8,27.23,50.389,50.389,0,0,1-5.71,7.51A51.18,51.18,0,0,1,581,388c-1,.07-2.07.1-3.11.1a51.47,51.47,0,1,1,51.47-51.47Z" transform="translate(-367.623 -268.559)"/>
      <path id="Path_255" data-name="Path 255" class="cls-4" d="M621.39,445.53l-40.84,8.05-2.65.53s-32.29-8.58-33.36-9.3-30.38-40.21-30.38-40.21,14.82.16,26.46-6.55c.42-.24.83-.5,1.24-.75,3.7,4,15.81,15.31,34.84,15.23A50.325,50.325,0,0,0,584,412c5.74-.88,11.53-1.45,17.31-2,11.07-1.16,28-4.52,36.89-14.3l1.29.64c1.3.62,2.67,1.21,4.09,1.74C674.65,409.79,621.39,445.53,621.39,445.53Z" transform="translate(-376.623 -265.559)"/>
      <path id="Path_256" data-name="Path 256" class="cls-3" d="M667.5,549.9c.35,7.87,6.08,96.51,6.08,96.51H495.21l1.21-55.81,1-44.64.32-14.65,1.43-50.75L494,476l-28.1-24.76h0c.21-.66,7.83-23.25,6.77-26.43s13.59-16.08,18.6-16.8a65.125,65.125,0,0,0,8.38-2.55c8.43-3,19.68-7.32,20.92-6.64,1.75.94,19.29-.69,20-.76h0s12.94,16.73,36.06,16.63a49,49,0,0,0,7.27-.58c5.74-.88,11.53-1.45,17.31-2.05,11.63-1.21,29.71-4.86,38.18-15.8,0,0,4.09.17,11.95,2.56s17.52,2.4,17.52,2.4a88.91,88.91,0,0,1,13.58,5,95,95,0,0,0,12.87,5s8.22,2.14,10.37,22.87S710,466.62,710,466.62l-42.5,36.81S667.15,542,667.5,549.9Z" transform="translate(-376.623 -265.559)"/>
      <path id="Path_258" data-name="Path 258" class="cls-1" d="M665.71,661.06s33.24-2.5,46.83-17.87,47.89-23.59,47.89-23.59,82.57-9.65,50,63.27c0,0-2.14,8.22-6.43,10.72s-14.65,8.94-14.65,8.94L662.52,691.45Z" transform="translate(-376.623 -265.559)"/>
      <path id="Path_259" data-name="Path 259" class="cls-4" d="M730.77,712.35a39.41,39.41,0,0,1-6.58,21.84c-21.34,1.89-68.6,6.33-78.49,9.09-12.15,3.37-36.74-2.5-39.43-3.16l-.25-.06s-4.74-14.38-7-23.58c-1-4.18-1.53-7.29-.87-7.52,2.15-.71,21.81-6.08,21.45-3s59-23.06,59-23.06l1.82,22.88C686.45,712.68,730.77,702.42,730.77,712.35Z" transform="translate(-376.623 -265.559)"/>
      <path id="Path_260" data-name="Path 260" class="cls-1" d="M791.89,693.23l-2.5,9.3a74.092,74.092,0,0,1-20,15.72c-11.8,6.08-32.53,16.09-32.53,16.09s-76.13,6.43-89,10-39.68-3.22-39.68-3.22-10-30.38-7.86-31.1,21.8-6.07,21.45-3,59-23.06,59-23.06Z" transform="translate(-376.623 -265.559)"/>
      <path id="Path_261" data-name="Path 261" class="cls-2" d="M579.92,773.37s37.42,2.61,46.32,6,72.48-1.3,72.48-1.3,41.08.8,52.85,4.32,7.59-36-14.13-40.43-52.33,2.09-52.33,2.09-34.54-4.45-38.73-5-31.78.25-31.78.25Z" transform="translate(-376.623 -265.559)"/>
      <path id="Path_262" data-name="Path 262" class="cls-4" d="M432.87,674.72s49.46,4.45,63.06,12.56Z" transform="translate(-376.623 -265.559)"/>
      <path id="Path_263" data-name="Path 263" class="cls-4" d="M741.37,642.28s-38.73,9.42-53.91,23.28Z" transform="translate(-376.623 -265.559)"/>
      <path id="Path_264" data-name="Path 264" class="cls-4" d="M435.75,663.47c.79.26,22.77,3.14,22.24,5.23S435.75,663.47,435.75,663.47Z" transform="translate(-376.623 -265.559)"/>
      <path id="Path_265" data-name="Path 265" class="cls-4" d="M401.21,718.61l2.86,10.73s6.43,5,7.86,7.5,9.65,3.22,9.65,3.22,8.58,3.93,10.73,6.07,25.37,8.94,47.18,11.8,62.19,8.22,70.77,11.08a103.006,103.006,0,0,0,18.59,3.93s16.08,8.58,24.66,6.44,23.23-41.11,23.23-41.11-56.47-13.22-58.26-17.51-56.12-24.3-56.12-24.3l-32.17.76Z" transform="translate(-376.623 -265.559)"/>
      <path id="Path_266" data-name="Path 266" class="cls-1" d="M399.06,719.68l2.86,10.73s6.44,5,7.87,7.5,9.65,3.22,9.65,3.22,8.58,3.93,10.72,6.08,25.38,8.93,47.18,11.79,62.2,8.22,70.78,11.08A103.319,103.319,0,0,0,566.7,774s16.09,8.57,24.67,6.43,23.23-41.11,23.23-41.11-56.48-13.22-58.26-17.51S474.84,685,474.84,685l-25-5.72Z" transform="translate(-376.623 -265.559)"/>
      <path id="Path_268" data-name="Path 268" class="cls-4" d="M462.44,553.84c.79,1.31,24.86,4,26.43,8.27S462.44,553.84,462.44,553.84Z" transform="translate(-376.623 -265.559)"/>
      <path id="Path_269" data-name="Path 269" class="cls-4" d="M454.85,574.25s3.27-10.21,11-8.38S454.85,574.25,454.85,574.25Z" transform="translate(-376.623 -265.559)"/>
      <path id="Path_270" data-name="Path 270" class="cls-4" d="M450.67,589.16s5.75-13.61,13.6-12.56S450.67,589.16,450.67,589.16Z" transform="translate(-376.623 -265.559)"/>
      <path id="Path_271" data-name="Path 271" class="cls-2" d="M712.54,588.86l-2.51,15s-25.73,47.19-30.38,47.9-30-31.45-30-31.45l-6.79-31.46,26.73-5.07,11.87-11.73S711.46,574.92,712.54,588.86Z" transform="translate(-376.623 -265.559)"/>
      <path id="Path_272" data-name="Path 272" class="cls-3" d="M700.38,459.83l9.65,6.79v36.1s7.51-.72,5.72,3.22-5.36,6.07-2.14,9.65,2.5,10.36-.36,11.08-7.86,3.57-3.22,5.36,7.51,5,7.51,7.15.36,5.36-1.43,7.86-3.57,8.22-1.43,10.37-1.79,13.22-1.79,13.22,6.8,17.52.36,22.52c0,0-2.86,10-3.22,10.72,0,0,4.51-34.79-40.46-20.08,0,0-.83-13.26-1.14-18.17s3.88-6.35,1.57-9.28-8.09-9.66-5.36-11.44,1.79-5,.71-7.51-4.85-2.5-1.43-5.54,5.45-5.89,3.44-7.32-5.5-6.09-2.72-8.23,2.86-33.24,2.86-33.24S678.94,437.31,700.38,459.83Z" transform="translate(-376.623 -265.559)"/>
      <path id="Path_273" data-name="Path 273" class="cls-4" d="M695.84,521.33s13.74-3.73,14.19,0S695.84,521.33,695.84,521.33Z" transform="translate(-376.623 -265.559)"/>
      <path id="Path_274" data-name="Path 274" class="cls-4" d="M680.4,531.6s18.84-4.71,21.19-1.05S680.4,531.6,680.4,531.6Z" transform="translate(-376.623 -265.559)"/>
      <path id="Path_275" data-name="Path 275" class="cls-4" d="M676.21,541.54s28.26-3.93,30.09,1.83S676.21,541.54,676.21,541.54Z" transform="translate(-376.623 -265.559)"/>
      <path id="Path_276" data-name="Path 276" class="cls-4" d="M680.4,553.84c1.05.26,27.21,2.09,27.73,7.06S680.4,553.84,680.4,553.84Z" transform="translate(-376.623 -265.559)"/>
      <rect id="Rectangle_49" data-name="Rectangle 49" class="cls-5" width="224.08" height="127.27" rx="10.47" transform="translate(93.577 304.391)"/>
      <circle id="Ellipse_20" data-name="Ellipse 20" class="cls-6" cx="8.26" cy="8.26" r="8.26" transform="translate(197.356 359.771)"/>
      <path id="Path_284" data-name="Path 284" d="M570.92,334.2a36.289,36.289,0,0,1-1.16,7.6c-1.74,6.53-5.14,13.77-4.53,20,.48-5.44,3.08-11.36,4.53-16.81A36.142,36.142,0,0,0,570.92,334.2Z" transform="translate(-363.623 -272.559)"/>
      <path id="Path_286" data-name="Path 286" d="M580.9,384.19a.345.345,0,0,0-.07-.25c-.76,3.72-3.82,7.12-5.23,10.86a15.229,15.229,0,0,0-.88,7,14.381,14.381,0,0,1,.88-3.78C577.37,393.31,581.78,389.15,580.9,384.19Z" transform="translate(-376.623 -265.559)"/>
      <path id="Path_287" data-name="Path 287" class="cls-7" d="M495.86,479.85c-.44-12.07-9.34-22-13.69-33.23a22.778,22.778,0,0,1-1.4-5.5,18.579,18.579,0,0,0,1.4,8.72c4.28,11.08,12.94,20.83,13.64,32.63C495.86,481.6,495.89,480.72,495.86,479.85Z" transform="matrix(0.875, 0.485, -0.485, 0.875, -72.519, -408.387)"/>
      <path id="Path_338" data-name="Path 338" class="cls-5" d="M-400.977-2593.762s4.9,12.6,5.138,18.769,1.4,6.614,1.4,6.614l7.006,11.733s2.73.442,3.97-1.187,1.868-7.061,1.868-7.061,6.655-6.614,18.974-10.1c2.961-.837,4.839-.667,6.364.537a10.377,10.377,0,0,1,2.8,4.379l-2.8,3.444s-10.509,2.544-13.9,2.812-2.9.925-4.32,2.145a21.29,21.29,0,0,0-2.919,3.4,4.3,4.3,0,0,0,1.868,4.379c1.205.9,4.654,1.279,6.1,1.162,1.655-.135,3.825-3.59,5.231-5.094a9.637,9.637,0,0,1,2.686-2.324l13.779-.357a5.147,5.147,0,0,1,3.153,1.7c1.725,1.765,3.681,5.179,5.722,5.542,3.759.671,7.485-.255,8.291-2.86s-4.437-7.025-4.437-7.025a38.338,38.338,0,0,0-5.488-1.2c-3.215-.455-7.241-.647-9.809-1.788-4.8-2.132-3.153-5.542-3.153-5.542s.37-3.417,4.437-3.307A28.883,28.883,0,0,1-335-2570.971a42.81,42.81,0,0,1,8.874,6.614,12.3,12.3,0,0,0,.934,5.54c.815,1.659,2.78,3.006,4.554,1.61,2.15-1.692,2.863-3.768,4.554-6.614,1.421-2.39,3.921-5.359,4.087-10.189.35-10.189,5.021-19.752,5.021-19.752a85.868,85.868,0,0,1,3.27,9.563,25.236,25.236,0,0,1,.652,7.58,25.316,25.316,0,0,1,.982,8.24c-.187,4.911-1.794,11.146-4.2,10.547-.774-.192-2.228,1.4-2.8,1.7-1.318.665-.548,1.69-.584,4.558-.02,1.6,1.324,3.452,0,4.916-4.2,4.647-10.976,13.675-10.976,13.675l-3.4,2.234-2.9,3.754s-3.5,4.558-12.728,6.525c-4.788,1.021-8.4-.075-12.261,0-1.868-.357-5.838.179-11.677.536-9.924-1.737-11.9-3.164-16.581-6.316s-1.635-4.052-5.138-5.66-2.718-2.71-3.036-3.039c-12.728-13.138-9.925-14.479-9.925-14.479s1.168-6.972-2.686-8.4-3.62-3.4-3.62-3.4-2.8-9.385,0-14.39c0,0-.117-3.754-.584-4.379S-400.977-2593.762-400.977-2593.762Z" transform="translate(563.444 2657.34)"/>
      <path id="Path_400" data-name="Path 400" class="cls-5" d="M-691.2-2926.284a32.5,32.5,0,0,1,0-7.6c.211-1.884,1.477-4.233,1.086-6.156-2.173-10.682-2.444-9.6-1.086-20.1.266-2.058-.282-5.665,0-7.423a32.252,32.252,0,0,1,6.518-14.484c3.259-4.164,6.88-2.9,11.406-2.173a49.621,49.621,0,0,1,10.682,3.44,44.067,44.067,0,0,0,12.673,2.716,33.445,33.445,0,0,0,11.044-1.448c5.748-1.811,6.925-3.938,11.949-5.793a21.534,21.534,0,0,1,8.147-1.63,25.481,25.481,0,0,1,7.242.724,22.9,22.9,0,0,1,6.337,3.078,28.124,28.124,0,0,1,4.345,6.7,33.623,33.623,0,0,1,2.173,8.147v6.156s2.354,18.467,0,21.364c0,0-.543.905,0,5.975s.905,9.777.905,9.777l2.173-13.035v-4.164s2.308-11.6,2.535-19.915-1.81-11.877-1.81-11.877c-.082-1.032.818-2.393.89-4.055.067-1.529-.695-3.407-.89-5.069-3.621-30.778-10.139-19.915-9.234-26.433s-2.354-8.51-5.069-10.139a15.2,15.2,0,0,0-6.156-1.81,4.457,4.457,0,0,0-2.354-1.811,24.483,24.483,0,0,0-4.888-1.086s-1.992-2.354-7.966-1.448c-6.337-4.164-13.76,0-13.76,0s-18.1-5.25-32.589,12.674c-3.809,4.714-4.625,2.853-6.337,5.975a36.548,36.548,0,0,0-4.164,16.656s-5.024,2.127-6.7,6.337,0,10.5,0,10.5a41.7,41.7,0,0,0-1.629,13.579c.226,8.238,2.535,19.372,2.535,19.372S-691.02-2925.2-691.2-2926.284Z" transform="translate(854.444 3027.712)"/>
    </g>
  </g>
</svg>
